<?xml version="1.0" standalone="no"?>
<!DOCTYPE svg PUBLIC "-//W3C//DTD SVG 20010904//EN"
 "http://www.w3.org/TR/2001/REC-SVG-20010904/DTD/svg10.dtd">
<svg version="1.0" xmlns="http://www.w3.org/2000/svg"
width="133" height="36" viewBox="0 0 3230.000000 1703.000000"
 preserveAspectRatio="xMidYMid meet">

<g transform="translate(0.000000,1703.000000) scale(0.100000,-0.100000)"
fill="#000000" stroke="none">
<path d="M3790 17009 c-128 -15 -240 -40 -375 -84 -638 -208 -1078 -737 -1121
-1348 l-7 -97 -64 0 c-35 0 -107 -5 -161 -10 -871 -95 -1563 -668 -1732 -1435
-104 -477 14 -974 328 -1378 l45 -57 -124 -128 c-264 -270 -422 -541 -509
-874 -74 -284 -80 -614 -16 -891 60 -259 194 -539 361 -753 369 -472 918 -775
1558 -859 154 -20 464 -20 627 0 236 30 481 97 691 190 56 25 110 45 120 45
19 0 19 -66 19 -2565 0 -2344 -1 -2568 -16 -2605 -9 -23 -15 -42 -13 -43 2 -1
38 -13 79 -27 110 -36 333 -150 428 -220 83 -60 105 -69 117 -50 12 20 183
129 273 174 74 38 190 86 284 119 16 6 16 10 3 48 -13 36 -15 376 -15 2615 l0
2573 78 -36 c264 -121 519 -193 787 -223 138 -15 457 -12 592 5 802 106 1466
562 1782 1225 132 278 189 553 178 869 -8 230 -45 413 -124 616 -100 253 -231
452 -441 667 -86 88 -122 131 -116 140 5 7 32 44 61 81 245 318 370 742 334
1133 -28 291 -117 542 -279 785 -339 507 -934 832 -1588 866 l-121 6 -7 91
c-56 749 -683 1345 -1508 1435 -112 13 -299 12 -408 0z"/>
<path d="M10820 9193 c-573 -2106 -1045 -3834 -1048 -3840 -3 -10 22 -13 104
-13 l109 0 -3 -700 -2 -700 895 0 895 0 0 -132 c0 -207 34 -376 112 -553 21
-49 42 -96 45 -103 4 -9 -351 -12 -1756 -12 l-1761 0 0 -60 0 -60 1799 0 1798
0 56 -72 56 -73 -1857 -5 -1857 -5 -3 -467 -2 -468 11842 -2 11843 -3 0 -75 0
-75 -11837 -3 -11838 -2 0 -70 0 -70 11865 0 11865 0 0 620 0 620 -994 2 -995
3 56 72 56 73 938 0 939 0 0 60 0 60 -901 0 c-717 0 -900 3 -896 12 3 7 24 54
45 103 77 175 112 349 112 551 l0 134 690 0 690 0 0 1745 0 1745 -1745 0
-1745 0 0 1400 0 1400 -1050 -2 -1050 -3 0 1398 0 1397 -7213 0 -7213 0 -1044
-3827z m3738 1846 c196 -24 378 -91 495 -184 113 -90 198 -239 229 -401 9 -50
13 -188 13 -494 l0 -425 -437 -3 -438 -2 0 417 c0 394 -1 420 -19 449 -24 39
-76 58 -143 52 -134 -13 -163 -104 -138 -431 23 -316 65 -384 510 -824 534
-527 663 -693 721 -923 19 -75 22 -122 26 -406 8 -486 -11 -636 -100 -809 -58
-113 -171 -223 -292 -287 -203 -105 -377 -141 -705 -142 -327 -1 -505 30 -698
125 -88 42 -118 64 -187 132 -92 92 -139 172 -177 304 -23 77 -23 86 -23 653
l0 575 435 0 435 0 5 -536 c5 -519 6 -538 25 -559 11 -12 32 -28 47 -36 37
-19 161 -18 203 2 62 29 65 47 65 386 0 335 -4 361 -64 483 -62 126 -150 228
-489 567 -495 495 -575 596 -639 798 -23 73 -23 83 -23 465 1 442 4 467 86
633 105 214 341 359 674 412 153 25 437 29 603 9z m4386 0 c343 -36 592 -184
696 -414 62 -137 63 -146 67 -672 l4 -483 -440 0 -441 0 0 465 c0 447 -1 466
-19 484 -25 25 -77 35 -143 29 -40 -4 -57 -12 -75 -32 l-23 -27 0 -1545 0
-1546 29 -29 c27 -27 35 -29 99 -29 61 0 75 3 101 26 l31 26 0 429 0 429 -95
0 -95 0 2 338 3 337 530 0 530 0 3 -1082 2 -1083 -233 0 -233 0 -58 119 -59
119 -86 -65 c-104 -77 -257 -155 -366 -185 -115 -31 -342 -31 -469 0 -249 62
-450 204 -531 374 -73 154 -69 45 -73 1698 -3 1547 -2 1624 39 1770 68 245
258 422 540 503 200 58 488 75 763 46z m-1496 -306 l2 -283 -455 0 -455 0 0
-580 0 -580 408 -2 407 -3 3 -267 2 -268 -410 0 -410 0 0 -760 0 -760 458 -2
457 -3 3 -282 2 -283 -940 0 -940 0 0 2173 c0 1196 3 2177 7 2180 3 4 423 6
932 5 l926 -3 3 -282z m4347 265 c7 -31 705 -4317 705 -4329 0 -5 -194 -9
-475 -9 l-475 0 -4 23 c-5 23 -156 1126 -156 1140 0 4 -94 7 -210 7 -115 0
-210 -3 -210 -7 0 -14 -150 -1117 -155 -1140 l-5 -23 -480 0 c-264 0 -480 3
-480 8 0 9 709 4299 715 4330 l5 22 610 0 610 0 5 -22z m2853 -265 l2 -283
-265 0 -265 0 0 -1895 0 -1895 -480 0 -480 0 0 1895 0 1895 -265 0 -265 0 0
285 0 285 1008 -2 1007 -3 3 -282z m1712 -3678 l0 -3115 674 0 674 0 -5 -77
c-14 -199 50 -492 147 -684 l20 -39 -4305 0 -4305 0 34 67 c87 174 129 360
130 580 l1 153 3428 0 3427 0 0 3115 0 3115 40 0 40 0 0 -3115z m-13036 -2541
c230 -56 414 -215 503 -434 52 -131 64 -246 38 -391 -46 -267 -230 -479 -490
-566 -72 -24 -95 -27 -220 -27 -125 0 -148 3 -220 27 -243 81 -425 279 -486
527 -7 30 -13 107 -14 170 0 93 4 129 23 190 119 379 491 596 866 504z m4864
0 c197 -44 385 -194 477 -379 57 -117 79 -219 72 -350 -9 -201 -70 -338 -212
-481 -143 -143 -273 -201 -475 -211 -97 -5 -129 -2 -200 16 -308 76 -518 320
-550 639 -23 226 58 435 230 595 177 164 415 226 658 171z m11090 -5 c241 -61
442 -261 512 -509 43 -156 21 -363 -56 -517 -118 -234 -344 -379 -609 -390
-141 -6 -231 12 -350 71 -156 78 -253 175 -331 331 -53 107 -74 197 -74 324 0
115 19 200 70 306 151 314 493 471 838 384z m-12645 -731 c8 -230 44 -387 131
-570 l32 -68 -1197 0 -1198 0 35 75 c86 186 126 370 128 582 l1 143 1031 0
1031 0 6 -162z m291 -828 c31 -39 56 -72 56 -75 0 -3 -623 -5 -1385 -5 l-1385
0 46 56 c25 31 51 65 57 75 11 18 50 19 1283 19 l1271 0 57 -70z m11033 51 c6
-10 32 -44 57 -75 l46 -56 -4490 0 c-2469 0 -4490 2 -4490 5 0 3 25 36 56 75
l57 70 4376 0 c4270 0 4376 0 4388 -19z m-18627 -611 l0 -150 -120 0 -120 0 0
150 0 150 120 0 120 0 0 -150z m2360 0 l0 -150 -115 0 -115 0 0 150 0 150 115
0 115 0 0 -150z m2370 0 l0 -150 -120 0 -120 0 0 150 0 150 120 0 120 0 0
-150z m2360 0 l0 -150 -120 0 -120 0 0 143 c0 79 3 147 7 150 3 4 57 7 120 7
l113 0 0 -150z m2360 0 l0 -150 -115 0 -115 0 0 134 0 134 38 15 c22 10 68 16
115 16 l77 1 0 -150z m2370 0 l0 -150 -120 0 -120 0 0 150 0 150 120 0 120 0
0 -150z m2360 0 l0 -150 -120 0 -120 0 0 150 0 150 120 0 120 0 0 -150z m2370
0 l0 -150 -120 0 -120 0 0 150 0 150 120 0 120 0 0 -150z m2360 0 l0 -150
-120 0 -120 0 0 150 0 150 120 0 120 0 0 -150z m2360 0 l0 -150 -120 0 -120 0
0 150 0 150 120 0 120 0 0 -150z"/>
<path d="M21116 9068 c-32 -326 -60 -601 -63 -610 -4 -17 7 -18 127 -18 120 0
131 1 127 18 -3 9 -31 284 -63 610 -32 325 -61 592 -64 592 -3 0 -32 -267 -64
-592z"/>
<path d="M13081 4043 c-86 -31 -161 -137 -161 -228 0 -79 61 -180 132 -216 99
-50 203 -34 284 45 94 92 101 227 16 326 -66 78 -178 108 -271 73z"/>
<path d="M17961 4049 c-78 -24 -153 -103 -167 -176 -20 -108 23 -214 110 -268
44 -27 58 -30 126 -30 68 0 82 3 126 30 161 100 150 348 -21 429 -45 22 -129
29 -174 15z"/>
<path d="M29040 4051 c-49 -15 -89 -41 -122 -81 -55 -64 -72 -147 -46 -234 16
-55 99 -138 154 -154 134 -39 270 31 309 160 19 65 19 81 -1 147 -35 119 -177
197 -294 162z"/>
<path d="M8610 9578 c-959 -1822 -1743 -3317 -1743 -3323 0 -7 312 -559 694
-1228 l694 -1216 698 -1 697 0 0 694 0 694 1045 3834 c575 2108 1047 3839
1050 3846 3 9 -140 12 -694 12 l-698 0 -1743 -3312z"/>
<path d="M14110 1465 c-10 -12 -10 -15 3 -15 19 0 31 16 18 24 -5 3 -14 -1
-21 -9z"/>
</g>
</svg>
